<?xml version="1.0" encoding="UTF-8" standalone="no"?>
<!-- Created with Inkscape (http://www.inkscape.org/) -->

<svg
   width="16"
   height="16"
   viewBox="0 0 16 16"
   version="1.1"
   id="svg1"
   xml:space="preserve"
   inkscape:version="1.4.4 (dcaf3e7d9e, 2026-05-05)"
   sodipodi:docname="playfield.svg"
   xmlns:inkscape="http://www.inkscape.org/namespaces/inkscape"
   xmlns:sodipodi="http://sodipodi.sourceforge.net/DTD/sodipodi-0.dtd"
   xmlns="http://www.w3.org/2000/svg"
   xmlns:svg="http://www.w3.org/2000/svg"><sodipodi:namedview
     id="namedview1"
     pagecolor="#505050"
     bordercolor="#ffffff"
     borderopacity="1"
     inkscape:showpageshadow="0"
     inkscape:pageopacity="0"
     inkscape:pagecheckerboard="1"
     inkscape:deskcolor="#505050"
     inkscape:document-units="px"
     inkscape:zoom="32"
     inkscape:cx="5.671875"
     inkscape:cy="17.359375"
     inkscape:window-width="2560"
     inkscape:window-height="1374"
     inkscape:window-x="1920"
     inkscape:window-y="32"
     inkscape:window-maximized="1"
     inkscape:current-layer="layer1" /><defs
     id="defs1"><inkscape:path-effect
       effect="fillet_chamfer"
       id="path-effect2"
       is_visible="true"
       lpeversion="1"
       nodesatellites_param="F,0,0,1,0,0,0,1 @ F,0,0,1,0,0,0,1 @ F,0,0,1,0,0,0,1 @ F,0,0,1,0,0,0,1 @ F,0,0,1,0,0,0,1 @ F,0,0,1,0,0,0,1 @ F,0,0,1,0,0,0,1 @ F,0,0,1,0,0,0,1 @ F,0,0,1,0,0,0,1 @ F,0,0,1,0,0,0,1 @ F,0,0,1,0,0.48624273,0,1 @ F,0,0,1,0,0.47772818,0,1 @ F,0,0,1,0,0,0,1"
       radius="0"
       unit="px"
       method="auto"
       mode="F"
       chamfer_steps="1"
       flexible="false"
       use_knot_distance="true"
       apply_no_radius="true"
       apply_with_radius="true"
       only_selected="false"
       hide_knots="false" /></defs><g
     inkscape:label="Layer 1"
     inkscape:groupmode="layer"
     id="layer1"><g
       id="g3-9-7"
       transform="matrix(1.3125,0,0,1.4084507,-10.959557,-7.6804465)"
       style="fill:#ffffff;fill-opacity:1">
	<path
   class="st0"
   d="m 12.254901,11.488117 c -1.07,0 -2,0.77 -2,1.83 0,1.06 0.93,1.72 2,1.72 1.07,0 2,-0.66 2,-1.72 0,-1.06 -0.93,-1.83 -2,-1.83 z"
   id="path1-4-7"
   style="fill:#ffffff;fill-opacity:1;stroke-width:0.1" />
	
	
</g><g
       id="g3-9-7-8"
       transform="matrix(1.3125,0,0,1.4084507,-10.959558,-13.180446)"
       style="fill:#ffffff;fill-opacity:1">
	<path
   class="st0"
   d="m 12.254901,11.488117 c -1.07,0 -2,0.77 -2,1.83 0,1.06 0.93,1.72 2,1.72 1.07,0 2,-0.66 2,-1.72 0,-1.06 -0.93,-1.83 -2,-1.83 z"
   id="path1-4-7-9"
   style="fill:#ffffff;fill-opacity:1;stroke-width:0.1" />
	
	
</g><g
       id="g3-9-7-4"
       transform="matrix(1.3125,0,0,1.4084507,-5.2095576,-7.6804465)"
       style="fill:#ffffff;fill-opacity:1">
	<path
   class="st0"
   d="m 12.254901,11.488117 c -1.07,0 -2,0.77 -2,1.83 0,1.06 0.93,1.72 2,1.72 1.07,0 2,-0.66 2,-1.72 0,-1.06 -0.93,-1.83 -2,-1.83 z"
   id="path1-4-7-1"
   style="fill:#ffffff;fill-opacity:1;stroke-width:0.1" />
	
	
</g><rect
       style="fill:#ffffff;fill-opacity:1;stroke-width:1.40645;stroke-dasharray:none;paint-order:stroke fill markers"
       id="rect2"
       width="2"
       height="16"
       x="0"
       y="0"
       ry="1"
       rx="1" /><rect
       style="fill:#ffffff;fill-opacity:1;stroke-width:1.31561;stroke-dasharray:none;paint-order:stroke fill markers"
       id="rect2-8"
       width="14"
       height="2"
       x="1"
       y="14" /><rect
       style="fill:#ffffff;fill-opacity:1;stroke-width:1.40645;stroke-dasharray:none;paint-order:stroke fill markers"
       id="rect2-1"
       width="2"
       height="16"
       x="14"
       y="0"
       ry="1"
       rx="1" /></g><style
     type="text/css"
     id="style1">
	.st0{fill:#5EBE97;}
	.st1{fill:#FFFFFF;}
</style><style
     type="text/css"
     id="style1-4">
	.st0{fill:#5EBE97;}
	.st1{fill:#FFFFFF;}
</style><style
     type="text/css"
     id="style1-2">
	.st0{fill:#5EBE97;}
	.st1{fill:#FFFFFF;}
</style><style
     type="text/css"
     id="style1-6">
	.st0{fill:#5EBE97;}
	.st1{fill:#FFFFFF;}
</style><style
     type="text/css"
     id="style1-2-3">
	.st0{fill:#5EBE97;}
	.st1{fill:#FFFFFF;}
</style><style
     type="text/css"
     id="style1-62">
	.st0{fill:#5EBE97;}
	.st1{fill:#FFFFFF;}
</style><style
     type="text/css"
     id="style1-29">
	.st0{fill:#5EBE97;}
	.st1{fill:#FFFFFF;}
</style><style
     type="text/css"
     id="style1-2-1">
	.st0{fill:#5EBE97;}
	.st1{fill:#FFFFFF;}
</style></svg>
